<svg id="Layer_1" data-name="Layer 1" xmlns="http://www.w3.org/2000/svg" xmlns:xlink="http://www.w3.org/1999/xlink" viewBox="0 0 800 800"><defs><style>.cls-1{fill:url(#linear-gradient);}.cls-10,.cls-2{fill:#0071b9;}.cls-2,.cls-9{stroke:#0071b9;}.cls-11,.cls-15,.cls-2,.cls-3,.cls-4,.cls-5,.cls-6,.cls-8,.cls-9{stroke-miterlimit:10;}.cls-12,.cls-13,.cls-2,.cls-3,.cls-4,.cls-5,.cls-8,.cls-9{stroke-width:0.64px;}.cls-12,.cls-15,.cls-3{fill:#f7c7ac;stroke:#f09662;}.cls-11,.cls-4,.cls-6{fill:#fff;stroke:#d2d4d4;}.cls-5{fill:#871717;stroke:#5f1717;}.cls-6{stroke-width:1.28px;}.cls-14,.cls-7{fill:#393b41;}.cls-7{opacity:0.2;}.cls-10,.cls-14,.cls-17,.cls-18,.cls-7{isolation:isolate;}.cls-8{fill:#992828;stroke:#871717;}.cls-9{fill:#2e8ac6;}.cls-10,.cls-14{opacity:0.7;}.cls-11{stroke-width:0.28px;}.cls-12,.cls-13{stroke-linejoin:round;}.cls-13,.cls-19{fill:#010002;}.cls-13{stroke:#010002;stroke-linecap:round;}.cls-15{stroke-width:0.63px;}.cls-16{fill:#560707;}.cls-17,.cls-18{fill:#f09662;}.cls-17{opacity:0.5;}.cls-18{opacity:0.4;}</style><linearGradient id="linear-gradient" x1="250.92" y1="457.83" x2="656.19" y2="457.83" gradientTransform="matrix(0.94, 0.02, 0.01, -0.94, -52.48, 756.44)" gradientUnits="userSpaceOnUse"><stop offset="0" stop-color="#871717"/><stop offset="1" stop-color="#461717"/></linearGradient></defs><title>Artboard 1</title><g id="Objects"><path class="cls-1" d="M190.45,297s21.53,13.48,23,27.09,44.25,10.24,44.25,10.24,3.37,4,4.95,16.44,34.85,4.16,34.85,4.16a34.47,34.47,0,0,1,7.63,17.36c1.28,10.36,219.8-13.87,219.8-13.87s33.94-18.62,46.27,4.5L567,318.74s-8.51-14.31-13.45-15.62-19.68-10.49-58.85-8.31-103,16.77-172,4.22C293.47,293.72,225.61,278.26,190.45,297Z"/><path class="cls-2" d="M651.51,340.52c-15.73-4.41-55.11-10.58-55.11-10.58C535.94,340.62,576,372.35,576,372.35s69.69-6.87,72.47-6.83A10.24,10.24,0,0,1,651,366a130.25,130.25,0,0,1,11-23.92A48.42,48.42,0,0,1,651.51,340.52Z"/><path class="cls-3" d="M745.68,361.78a53.12,53.12,0,0,1-5.31,14.57c3.27,1,5.39,2.44,6.72,4.56,3.19,5.15,10.58,9,10.58,9l3.28-2.73,8.76,5.53,10.21.15.3-22.07Z"/><path class="cls-4" d="M652.14,362.79q-.61,1.61-1.16,3.22c3.72,1.1,9.83,4,16,7.71,7.84,4.8,33.41.93,51,.77,1.52,0,3,0,4.34,0a6.67,6.67,0,0,0-3.22-.94C696.49,372.15,673.92,369.81,652.14,362.79Z"/><path class="cls-5" d="M744.5,366.59a43,43,0,0,0,1.2-4.81l-1.59-.41s-13.35-9.9-36-16.28c-17.79-5-32.81-2.25-46.05-3-1.46,2.47-2.79,4.94-4.07,7.46C687.76,350,718.37,350.22,744.5,366.59Z"/><path class="cls-4" d="M658,349.57q-2.41,4.74-4.41,9.63c30.15,1.55,61.42.82,88.86,13a53,53,0,0,0,2.12-5.65C718.37,350.22,687.76,350,658,349.57Z"/><path class="cls-5" d="M652.14,362.79c21.78,7,44.36,9.36,67,10.78a6.67,6.67,0,0,1,3.22.94c8.17.07,14,.6,18.11,1.87q1.06-2.06,2-4.17c-27.46-12.18-58.76-11.42-88.83-13C653.05,360.4,652.58,361.59,652.14,362.79Z"/><path class="cls-4" d="M675.63,341.87l-19.07-.27s-6.09,9.34-16.46,24.62c0,0,15.46-.33,24.15,5.94C664.23,372.13,666.78,345,675.63,341.87Z"/><path class="cls-6" d="M749.14,362.68s.34,11.72-3.62,16.34c0,0-7.13-4.15-13.15-4.29,0,0,3.92-10.44,3-18.68Z"/><path class="cls-7" d="M748.65,370.29s-21.17-19.23-90.77-16.89S573,352,563,347.8c0,0,1.44-14,33.37-17.86,0,0,55.11,10.58,60.16,11.66,24.41,5.13,30.49-6.41,74.25,12.1l18.36,9Z"/><path class="cls-8" d="M187,387.12c-9.42,3.4-79.75,22.78-84.85,19.82s-8.42-11.94-10.94-13-6.92-1.22-17.21,4.86-25.09,2.2-26.07,3.3-30.8,14.15-30.8,14.15l3.85,3.57,21.77-1.38,28.06,2.21,141.65,1.82c-10.07-10.14-17.21-23.27-22.91-36.18C188.64,386.56,187.81,386.82,187,387.12Z"/><path class="cls-9" d="M398.36,366C394.23,364.82,243,395.72,238.81,395c-3.3-.54-6.95-1-9.83-2.76a38.24,38.24,0,0,1-5.5-4.35c-4.75-2.13-16.43-7.16-34-1.66,5.7,12.9,12.86,26,22.91,36.18l174.93,2.27a109.05,109.05,0,0,0,10.47-7.37C423.39,399.88,407.69,368.62,398.36,366Z"/><path class="cls-4" d="M194.81,382.24s20.13,31.36,43.11,42.24l-40.14-.61-15.45-35.82Z"/><path class="cls-10" d="M325.85,402.92s13.42-30.05,56-27.12,11.17,41.52,1.91,44.27S321.24,425.75,325.85,402.92Z"/><path class="cls-9" d="M579.71,374l-.25-6.09.18-.2c-10.86-3.07-21-7.79-32.16-5.72,1.3-15.81,1.59-30.63-.86-46.26-5.59-2.22-11.34-4.19-16.1-4.45-12.81-.69-18.88,7-22.39,16s-30.34,33.53-43.95,35.56c-19,2.81-53.76-4.65-53.76-4.65-31-.71-43.46,23.16-43.31,35.68s15.33,32.53,26.4,43.57S420,477,420,477s-15.93-8.57-24.94-4.22a8.2,8.2,0,0,1-.75.33c8.59,12.59,18.56,25.14,28,36.91l29.77.48s14.84-9.06,16.17-13.84-3.28-22.78-4.21-26S444,418.78,444,418.78c10.91-1.43,35.37-11.95,58.66-1.67,9,4,16.31,5,21.84,4.66l1.12-7.7-13.94-13L530.45,398l8-17.2,8.84,16.84L566.12,400l-13.23,13.57,0,.22,11.7-3Z"/><path class="cls-11" d="M566.08,399.85l-18.87-2.33-8.84-16.84-8,17.2L511.69,401l13.94,13-1.12,7.7c8.71-.48,13.07-4.12,13.07-4.12l15.28-3.94,0-.22Z"/><path class="cls-12" d="M569,323.2c-3.76,1-12.95-3.67-22.43-7.47,2.45,15.63,2.17,30.45.86,46.26,11.17-2.05,21.3,2.65,32.16,5.72l15.06-16.54,21.72,6.09,4.85-2.76,2.09-16,4.49.06s1.09-12.47.17-14.45,2.29-5.35,2.29-5.35.18-5.71,1.05-8c-7.57-7.35-18.21-14.14-25.54-9.39-6.45,3.74-8.74,10.18-10.12,19.13.4,1.67.92,2.51,2.19,2.53-8.09,4.89-1.36-14.89-15.27-10.48-4,2.29-3.13,8.4-.11,11.53a21.65,21.65,0,0,1-10.84-3.27A5.26,5.26,0,0,1,569,323.2Z"/><path class="cls-8" d="M295.79,494.57c-5.1-3-11-17.45-12.93-19.41s-3.57,4.43-15.48,6.14-21.46-.33-22.75.29L218.57,494l-.05,5.76,23.79-2.34,28.54,10.15,151.43,2.32c-9.41-11.77-19.39-24.3-28-36.91C382.13,478,300.78,497.46,295.79,494.57Z"/><path class="cls-4" d="M397.23,469.51s33.35,33.35,57.64,39l-4.33,4.11-42.35,1.65s-13.58-28.81-18.27-39.76Z"/><path class="cls-13" d="M582.62,312.58c13.93-4.38,7.18,15.38,15.27,10.48-1.26,0-1.64-1-2.19-2.53,1.37-8.94,3.67-15.38,10.12-19.13,7.32-4.74,18,2.06,25.54,9.39.54-1.4,1.3-1.48,2.53,2.06a9.73,9.73,0,0,0,10.15,7c-6-4.65-1.16-10.9-1.16-10.9s12.62,1.12,12.52-11.68c-.06-8.82-6.69-13.64-15.22-14.52s-9.71,5.54-18.23,4.75-39-1.26-39-1.26l-2.43,8s-4.11,19.48-8.9,26.65a21.65,21.65,0,0,0,10.84,3.18C580.27,322.23,577.76,314.71,582.62,312.58Z"/><path class="cls-14" d="M634.63,314.63s-1.16-3.26,2.09-10.23-8.19-8.29-14.29-7.27-13.78,2.66-13.78,2.66,13.29,1.21,22.7,11C631.34,310.79,633,309.79,634.63,314.63Z"/><path class="cls-14" d="M608.66,299.79s13.64-4.91,22.84-5.13,13.71,3.95,10.46,10.68-4.81,12.88,2.08,14.61c0,0-7.32-3.88-1.13-12.57s6-19.08-5.49-18.29S609.36,299.2,608.66,299.79Z"/><path class="cls-2" d="M546.62,315.73s-20.94-11.16-33.73-13.23S465.39,315.28,450.6,317s-24.42,3.21-22.29,14.26,12.43,15.86,34.73,18,39,7.5,59-1.8S551.52,327.84,546.62,315.73Z"/><path class="cls-7" d="M544.12,319.8s-22.11-15.52-32.54-5.64-11.24,15-17.69,14.64-36.82-5.2-36.82-5.2-4-5.09,24.07-11.68S524.8,302.26,544.12,319.8Z"/><path class="cls-15" d="M497.17,362.25l20.69,3.23-.08,7.58,6.94,4.4-.08,7.59-6.36-.1-7.63,12.52s-8.51,3.37-23.22-24Z"/><path class="cls-5" d="M493.93,361.74c-20.7-12.48-32.71-30.64-47.15-48.2a18.16,18.16,0,0,0-1.9.13,22,22,0,0,0-13.28,6.5c21.06,14.71,36.37,35,58.63,47.54A33,33,0,0,0,493.93,361.74Z"/><path class="cls-4" d="M490.26,367.72c-22.26-12.58-37.57-32.82-58.63-47.54a22.55,22.55,0,0,0-6.2,11.58c16.85,18.62,38.9,27.93,58.92,40.44A12.23,12.23,0,0,0,490.26,367.72Z"/><path class="cls-5" d="M425.42,331.76A18,18,0,0,0,430.37,348c12.22,12.56,41.8,20.78,50,24a6.21,6.21,0,0,0,3.95.22C464.32,359.69,442.27,350.38,425.42,331.76Z"/><path class="cls-4" d="M493.93,361.74c.42-.89.68-1.5.68-1.5s-17.44-13.66-21.78-26.4c-4.17-12.22-11.28-21.08-26-20.29C461.22,331.1,473.22,349.26,493.93,361.74Z"/><path class="cls-4" d="M490.38,356.63s-3.21,12.12-13.17,14.22l13,5.77,9.89-13.76Z"/><path class="cls-16" d="M411.41,327.16s-136.6,4.31-165.67,7C245.74,334.18,391.19,334.06,411.41,327.16Z"/><path class="cls-16" d="M411.27,339.76S310.62,354,293.43,355.84,397.12,347.76,411.27,339.76Z"/><path class="cls-7" d="M398.54,382.88s49,61.7,50.39,87.41-154.11,32.45-154.11,32.45-18.71-13.9-25.86-13.38-50.43,10.43-50.43,10.43,14.84-1.26,25.44-1.74l26.87,9.58s150,1.7,155.17,2.35,32.31-2.07,38.91-13.73S438.44,417.32,429.51,396C423.15,380.79,398.54,382.88,398.54,382.88Z"/><path class="cls-7" d="M441.19,386.49s34.12-1.81,43,1.87,22.36,19.15,32.06,21.94c17.5,5,40-.33,54.71-21.86,0,0-6.34,22.14-55.44,31.69l-16-4.4s-3.16-3.54-15.57-3.09-36.8,5.38-36.8,5.38S421.17,386.93,441.19,386.49Z"/><path class="cls-5" d="M390,359.92c-13.77,3.36-19.27,13.82-21.44,22.52,14.59-5.59,30.91-19.15,47.24-24.49A77.47,77.47,0,0,0,390,359.92Z"/><path class="cls-5" d="M441.3,376.64c-10.19,3.74-20.37,7.59-30.55,11.7a60.53,60.53,0,0,1,12.72,7.73c7.15-1,14.3-3.74,21.13-6.41Z"/><path class="cls-4" d="M444,418.69l7.57-1.59-2-7.83c-3.24,1-6.58,2.31-9.81,3.44C442.52,416.27,444,418.69,444,418.69Z"/><path class="cls-5" d="M433.43,405.24c2.54,2.72,4.68,5.31,6.35,7.48,3.22-1.13,6.58-2.46,9.81-3.44l-2.29-9A77,77,0,0,1,433.43,405.24Z"/><path class="cls-5" d="M437.88,363.14c-21.2,2.23-33.92-.13-54.67,19.39-1.5,1.42-4.63,4.07-3.23,5.09a37.5,37.5,0,0,1,15.37-2.89,123.08,123.08,0,0,1,44-15.89Z"/><path class="cls-4" d="M437.88,363.14l-.5-2-16.06-2.37a42.38,42.38,0,0,0-5.54-.85c-16.33,5.33-28.2,5.18-47.24,24.49a45.6,45.6,0,0,0-1.32,12.9,51.27,51.27,0,0,1,12.75-7.7c-1.41,0,1.71-3.7,3.23-5.09C405.5,362.66,417.42,365.84,437.88,363.14Z"/><path class="cls-4" d="M439.32,368.83a123.08,123.08,0,0,0-44,15.89,41.05,41.05,0,0,1,15.43,3.6c10.19-4.12,20.38-8,30.55-11.7Z"/><path class="cls-4" d="M444.6,389.64c-6.87,2.71-14,5.43-21.13,6.41a86.79,86.79,0,0,1,10,9.17,77,77,0,0,0,13.86-5Z"/><path class="cls-8" d="M512.88,302.5s34.46,33.45,34.6,59.49l4.7-.49s3.75-35.85-4.15-50S513,287.07,513,287.07,394.76,300.41,360.64,296s-121-34.76-121-34.76-72.29,8-124,70.94c0,0,81-41.26,151-34S357,314.35,384.4,312.58,501.84,290.4,512.88,302.5Z"/><path class="cls-17" d="M616.42,357.28S591,346.1,586.5,340.51l3.28-16.29s-1-8.07-4.05-8.58-2.11,2.15,0,4.52,5.74-1.07,1.2,9.61c-2.11,5-8.55,21.26-8.9,28.17s12.21.06,16.73-6.78h0l21.72,6.09"/><path class="cls-18" d="M630.29,318.74s-4.73,1.43-13.41-4.39l-4-3.65s0,5.63,1.36,8.51,4.45,7.05,6.86,6.48,6.54-3.49,6.85-1.62-.17,14.45-.17,14.45l-7.64-3.79,3.19,3.77,4.74.42s.57-13.82.38-14.1C627.31,322.92,628.68,319.89,630.29,318.74Z"/><path class="cls-19" d="M630.29,318.74s-2.25,1.36-3.74.91-9.14-3.49-13-8.39C613.51,311.26,628.69,318.82,630.29,318.74Z"/><path d="M626.82,319.24c-.78-.17-4.37-1.79-5.34-2.05-1.81-.5-3.59-1-5.44-1.36-1.19-.22,3.53,3.34,5.66,3.89a8.94,8.94,0,0,1,1.69.66,1.85,1.85,0,0,0,.1,2.33c.19.17.47,0,.58-.19a4.68,4.68,0,0,0,.62-1.52,6.92,6.92,0,0,0,1.39.49C627.29,321.77,628.27,319.55,626.82,319.24Z"/></g></svg>